<?xml version="1.0" standalone="no"?>
<!DOCTYPE svg PUBLIC "-//W3C//DTD SVG 20010904//EN"
 "http://www.w3.org/TR/2001/REC-SVG-20010904/DTD/svg10.dtd">
<svg version="1.0" xmlns="http://www.w3.org/2000/svg"
 width="16.000000pt" height="16.000000pt" viewBox="0 0 16.000000 16.000000"
 preserveAspectRatio="xMidYMid meet">
<metadata>
Created by potrace 1.11, written by Peter Selinger 2001-2013
</metadata>
<g transform="translate(0.000000,16.000000) scale(0.002667,-0.002667)"
fill="#000000" stroke="none">
<path d="M0 3000 l0 -3000 3000 0 3000 0 0 3000 0 3000 -3000 0 -3000 0 0
-3000z m2200 1109 l0 -772 118 6 c64 3 133 11 152 17 91 30 95 36 561 730 481
716 492 730 601 767 47 15 105 18 497 21 363 2 442 1 434 -10 -6 -7 -257 -357
-558 -778 -301 -421 -563 -784 -582 -808 -34 -42 -122 -120 -173 -153 l-25
-17 37 -15 c62 -26 154 -94 203 -149 25 -29 304 -453 620 -943 l574 -890 -432
-3 c-414 -2 -435 -1 -501 19 -58 17 -77 29 -118 72 -28 30 -235 341 -479 722
-237 369 -440 680 -452 693 -11 12 -46 35 -76 50 -53 25 -65 27 -228 31 l-173
3 0 -796 0 -796 -430 0 -430 0 0 1885 0 1885 430 0 430 0 0 -771z"/>
</g>
</svg>
