<?xml version="1.0" standalone="no"?>
<!-- Generator: Adobe Fireworks 10, Export SVG Extension by Aaron Beall (http://fireworks.abeall.com) . Version: 0.6.1  -->
<!DOCTYPE svg PUBLIC "-//W3C//DTD SVG 1.1//EN" "http://www.w3.org/Graphics/SVG/1.1/DTD/svg11.dtd">
<svg id="Untitled-page%201" viewBox="0 0 736 491" style="background-color:#ffffff00" version="1.1"
	xmlns="http://www.w3.org/2000/svg" xmlns:xlink="http://www.w3.org/1999/xlink" xml:space="preserve"
	x="0px" y="0px" width="736px" height="491px"
>
	<path d="M 280.6871 353.6996 C 281.4995 352.4537 318.8706 332.0516 346.5239 317.7572 C 351.4366 315.2177 356.2268 312.2522 357.1687 311.1671 C 358.3916 309.7582 357.3608 300.7314 353.5627 279.5901 C 347.7474 247.2208 346.2982 244.1238 335.6642 241.3405 C 328.3267 239.4201 304.2474 244.703 272.8893 255.1132 C 254.6343 261.1734 248.3312 262.6821 246.9044 261.333 C 244.5306 259.0884 243.4696 221.3693 245.6907 218.1891 C 247.0652 216.2211 249.373 216.2724 264.0066 218.5964 C 301.7568 224.5917 327.1764 226.4584 370.8846 226.445 C 405.9122 226.4343 419.0138 225.798 441.2802 223.0262 C 456.3271 221.153 471.6744 218.9561 475.3853 218.144 C 485.6055 215.9074 492.1949 216.2318 493.3267 219.0273 C 495.3406 224.0021 494.3428 252.0298 491.9594 257.4372 C 490.665 260.3734 489.2118 262.7758 488.73 262.7758 C 488.248 262.7758 478.1331 259.6973 466.252 255.9347 C 432.3231 245.1896 409.9628 239.6071 405.1888 240.6897 C 397.1843 242.5049 392.3828 245.7164 391.2363 250.0216 C 389.2534 257.4691 380.6312 304.961 380.6301 308.4424 C 380.6292 311.1631 386.0643 314.6551 410.2679 327.484 C 448.2451 347.6135 456.9594 352.5352 456.9594 353.8545 C 456.9594 355.2802 438.925 348.718 418.1672 346.1505 C 378.7946 341.2806 371.5281 337.8868 316.4662 346.5725 C 291.0481 350.5821 278.9677 356.3369 280.6871 353.6996 ZM 459.2452 451.1425 C 455.2397 453.0571 449.0162 454.6063 445.3296 454.6063 C 435.6205 454.6063 421.6901 450.3087 416.5809 445.7373 C 410.8409 440.6014 406.8466 430.5618 407.5052 422.9258 C 407.9756 417.4724 408.6121 416.7083 414.0984 415.0106 C 417.4384 413.9771 425.7369 412.4764 432.5398 411.6758 C 453.4501 409.2151 467.8008 415.1001 472.2831 427.9739 C 475.0098 435.8055 469.0042 446.4777 459.2452 451.1425 ZM 281.984 449.8632 C 272.2251 445.1984 266.2196 434.5262 268.9463 426.6946 C 273.4285 413.8207 287.7793 407.9358 308.6895 410.3965 C 315.4923 411.1971 323.791 412.6978 327.131 413.7313 C 332.6173 415.429 333.2538 416.1931 333.7241 421.6465 C 334.3827 429.2825 330.3884 439.3221 324.6484 444.458 C 319.5393 449.0294 305.6088 453.3269 295.8997 453.3269 C 292.2131 453.3269 285.9896 451.7778 281.984 449.8632 ZM 207.4108 363.0923 C 200.3438 356.1829 195.6494 349.1508 195.6382 345.4572 C 195.6189 339.0342 200.2657 333.532 205.7097 333.532 C 209.2987 333.532 240.1797 355.0172 240.1797 357.5142 C 240.1797 358.3984 235.4513 362.6009 229.6722 366.853 L 219.1648 374.5841 L 207.4108 363.0923 ZM 525.9227 362.1046 L 514.1687 373.5964 L 503.6613 365.8653 C 497.8822 361.6132 493.1539 357.4107 493.1539 356.5265 C 493.1539 354.0295 524.0349 332.5443 527.6238 332.5443 C 533.0677 332.5443 537.7144 338.0464 537.6953 344.4695 C 537.6841 348.163 532.9897 355.1952 525.9227 362.1046 ZM 461.4771 348.4375 C 454.6393 341.673 450.9473 332.7742 450.9473 323.0578 C 450.9473 316.8271 459.9054 304.7731 478.7943 285.5871 C 487.411 276.8348 497.9403 265.6678 502.1927 260.7713 C 511.4463 250.1167 515.4824 250.8162 509.2672 261.9973 C 503.9098 271.6353 480.1346 299.9871 473.8561 304.2249 C 467.2479 308.6852 462.3157 317.946 462.3157 325.8933 C 462.3157 333.9762 467.7834 344.3668 472.0369 344.3668 C 473.7743 344.3668 482.5203 339.8177 491.4725 334.2578 C 506.074 325.1891 511.0372 323.4373 511.0372 327.3521 C 511.0372 328.0546 503.7404 334.5948 494.8219 341.8861 C 475.0245 358.0714 471.8464 358.6958 461.4771 348.4375 ZM 273.3591 348.269 C 262.9897 358.5273 259.8115 357.9029 240.0143 341.7176 C 231.0958 334.4263 223.799 327.886 223.799 327.1836 C 223.799 323.2687 228.7622 325.0206 243.3636 334.0892 C 252.3159 339.6492 261.0619 344.1983 262.7993 344.1983 C 267.0527 344.1983 272.5205 333.8077 272.5205 325.7248 C 272.5205 317.7775 267.5883 308.5167 260.9801 304.0564 C 254.7014 299.8185 230.9264 271.4668 225.569 261.8288 C 219.3538 250.6476 223.3899 249.9482 232.6434 260.6028 C 236.8959 265.4993 247.4252 276.6663 256.0419 285.4185 C 274.9308 304.6046 283.8889 316.6586 283.8889 322.8893 C 283.8889 332.6057 280.1969 341.5045 273.3591 348.269 ZM 283.1542 467.4474 C 308.7518 471.2375 337.3666 465.9253 347.7676 455.4519 C 350.019 453.1849 353.2126 448.5591 354.8646 445.1724 C 357.7094 439.3402 358.2918 438.9891 365.877 438.5338 C 377.6552 437.8268 380.8959 439.0331 382.9325 444.8827 C 385.4387 452.0808 395.5952 460.8923 405.4966 464.4586 C 418.6793 469.2067 450.0039 468.801 466.9941 463.6621 C 488.5656 457.1376 507.3221 441.3142 518.4286 420.271 C 521.2734 414.8809 525.6654 410.0753 532.006 405.415 C 553.6439 389.511 559.1957 380.4411 558.9998 361.3156 C 558.8212 343.8859 555.2811 333.3778 544.7621 319.0526 C 536.3881 307.6485 536.0045 306.6759 534.2112 292.2952 C 533.1876 284.0875 531.97 274.9307 531.5054 271.9468 C 530.7642 267.1872 531.6448 265.3589 538.6835 257.0453 C 549.7722 243.9482 552.6833 235.9827 552.6278 218.8892 C 552.5723 201.7936 550.3052 196.8117 537.325 185.2597 C 528.3547 177.2765 527.79 176.3395 526.8192 167.8286 C 521.6682 122.668 507.6774 92.4345 481.0021 68.8204 C 462.8601 52.7605 440.5449 41.1269 414.0977 33.941 C 402.276 30.729 400.898 29.5442 400.898 22.5927 C 400.898 19.4132 399.8893 16.0184 398.6564 15.0485 C 397.1066 13.8292 387.21 13.4148 366.5814 13.7054 L 336.7479 14.1257 L 336.3026 18.7441 C 335.2501 29.6597 335.358 29.5663 317.691 34.8267 C 252.9268 54.1103 214.1262 99.9932 209.755 162.4644 C 209.0732 172.208 207.9914 177.4397 206.4125 178.6287 C 186.9417 193.2904 183.2657 200.0382 183.291 221.0714 C 183.3095 236.5257 186.9054 245.3217 197.7604 256.4658 C 205.4592 264.3697 205.8033 267.302 201.9955 292.5523 C 199.9207 306.3106 199.0149 308.7094 192.3251 318.1609 C 180.4931 334.8776 178.0033 341.5198 177.148 358.6495 C 176.1577 378.4861 178.4305 384.2341 192.0344 396.297 C 197.637 401.265 204.5804 406.2561 207.4641 407.3883 C 211.5184 408.9802 214.0242 411.9259 218.5156 420.3802 C 224.9511 432.4938 243.0746 451.5103 253.9745 457.5863 C 262.617 462.4039 273.1635 465.9681 283.1542 467.4474 Z" fill="#ffffff"/>
</svg>